<svg width="50" height="50" viewBox="0 0 50 50" fill="none" xmlns="http://www.w3.org/2000/svg">
<path d="M10.4167 39.5833H13.3854L33.75 19.2187L30.7812 16.25L10.4167 36.6146V39.5833ZM6.25 43.75V34.8958L33.75 7.44792C34.1667 7.06597 34.6267 6.77083 35.1302 6.5625C35.6337 6.35417 36.1632 6.25 36.7187 6.25C37.2743 6.25 37.8125 6.35417 38.3333 6.5625C38.8542 6.77083 39.3056 7.08333 39.6875 7.5L42.5521 10.4167C42.9688 10.7986 43.2726 11.25 43.4635 11.7708C43.6545 12.2917 43.75 12.8125 43.75 13.3333C43.75 13.8889 43.6545 14.4184 43.4635 14.9219C43.2726 15.4253 42.9688 15.8854 42.5521 16.3021L15.1042 43.75H6.25ZM32.2396 17.7604L30.7812 16.25L33.75 19.2187L32.2396 17.7604Z" fill="#1D1B20"/>
</svg>
