<svg width="30" height="30" viewBox="0 0 30 30" fill="none" xmlns="http://www.w3.org/2000/svg">
<path d="M6.25 26.25C5.5625 26.25 4.96875 26.0104 4.46875 25.5313C3.98958 25.0313 3.75 24.4375 3.75 23.75V6.25C3.75 5.5625 3.98958 4.97917 4.46875 4.5C4.96875 4 5.5625 3.75 6.25 3.75H23.75C24.4375 3.75 25.0208 4 25.5 4.5C26 4.97917 26.25 5.5625 26.25 6.25V23.75C26.25 24.4375 26 25.0313 25.5 25.5313C25.0208 26.0104 24.4375 26.25 23.75 26.25H6.25ZM6.25 23.75H23.75V6.25H6.25V23.75ZM7.5 21.25H22.5L17.8125 15L14.0625 20L11.25 16.25L7.5 21.25ZM6.25 23.75V6.25V23.75Z" fill="#1D1B20"/>
</svg>
