<svg width="200" height="200" viewBox="0 0 200 200" fill="none" xmlns="http://www.w3.org/2000/svg">
<path d="M100.546 6.64253C123.448 6.64253 142.01 26.6963 142.01 51.4331C142.01 68.7834 132.876 83.8221 119.52 91.2617C116.328 93.0419 114.321 96.0178 114.321 99.2859V106.227C114.321 111.628 119.427 115.999 125.718 115.999H131.079C164.865 115.999 192.26 139.48 192.26 168.455V193.364H7.74743V168.68C7.74743 139.706 35.398 115.992 69.2001 115.992H75.0881C81.3868 115.992 86.4846 111.614 86.4846 106.221V99.1464C86.4846 95.8916 84.5013 92.9224 81.3403 91.1289C68.1154 83.6428 59.0897 68.6771 59.0897 51.4331C59.0819 26.6897 77.6448 6.64253 100.546 6.64253ZM100.546 0C73.4147 0 51.3345 23.0695 51.3345 51.4331C51.3345 70.3577 61.197 87.6947 77.0715 96.6754C78.1174 97.2666 78.7372 98.1899 78.7372 99.1464V106.221C78.7372 107.948 77.1025 109.349 75.0881 109.349H69.2001C31.044 109.349 0 135.966 0 168.68V193.357C0 197.024 3.47085 200 7.74743 200H192.253C196.529 200 200 197.024 200 193.357V168.448C200 135.86 169.08 109.349 131.071 109.349H125.71C123.696 109.349 122.061 107.948 122.061 106.221V99.2793C122.061 98.3294 122.688 97.4127 123.727 96.8282C139.779 87.894 149.75 70.4972 149.75 51.4331C149.758 23.0695 127.678 0 100.546 0Z" fill="black"/>
<path d="M41.9001 196.313C39.7618 196.313 38.0264 194.826 38.0264 192.992V166.422C38.0264 164.589 39.7618 163.101 41.9001 163.101C44.0384 163.101 45.7738 164.589 45.7738 166.422V192.992C45.7738 194.826 44.0384 196.313 41.9001 196.313Z" fill="black"/>
<path d="M158.111 196.313C155.973 196.313 154.237 194.826 154.237 192.992V166.422C154.237 164.589 155.973 163.101 158.111 163.101C160.249 163.101 161.985 164.589 161.985 166.422V192.992C161.985 194.826 160.249 196.313 158.111 196.313Z" fill="black"/>
<path d="M84.0905 43.3227C74.6774 43.3227 65.4347 41.1971 57.3696 37.185C55.518 36.2617 54.8905 34.2291 55.9596 32.6415C57.0365 31.0539 59.3917 30.5225 61.2589 31.4326C68.1463 34.8667 76.041 36.6802 84.0905 36.6802C102.212 36.6802 118.474 27.5865 125.524 13.5177C126.368 11.8304 128.646 11.0599 130.614 11.7773C132.582 12.5013 133.488 14.4542 132.644 16.1415C124.369 32.6548 105.319 43.3227 84.0905 43.3227Z" fill="black"/>
</svg>
